<svg id="Layer_1" data-name="Layer 1" xmlns="http://www.w3.org/2000/svg" viewBox="0 0 628.14 303.14"><defs><style>.cls-1{fill:#020202;}</style></defs><path class="cls-1" d="M437.48,176.78a11.22,11.22,0,1,0-11.22-11.22A11.21,11.21,0,0,0,437.48,176.78Zm190,75.1a9.23,9.23,0,0,0-9.34,9.12h0a38.24,38.24,0,0,1-76.48-.15V237.31h0V200.9A26.35,26.35,0,0,1,568,174.83a9.23,9.23,0,0,0,0-18.46A44.72,44.72,0,0,0,532.41,174a44.66,44.66,0,0,0-35.6-17.67,9.23,9.23,0,0,0,0,18.46,26.37,26.37,0,0,1,26.38,26v60a1,1,0,0,0,0,.14,38.24,38.24,0,0,1-76.47-.15V205.19a9.24,9.24,0,0,0-18.47,0v61a32.64,32.64,0,0,1-65.27,0V174.82h18.19a9.23,9.23,0,0,0,0-18.46H363c0-13.1,0-21.72,0-21.72a9.24,9.24,0,0,0-18.47,0h0v30.49c0,.05,0,.09,0,.14s0,.18,0,.28V284.28h0a14.51,14.51,0,0,1-29,0V212.51a56.7,56.7,0,0,0-113.4-.32h0c0,.39,0,71.7,0,71.7v.77a14.5,14.5,0,0,1-29,0c0-.26,0-1.24,0-1.49V156h14.8a33,33,0,1,0-33.26-33,.57.57,0,0,0,0,.13v14.38H116.38a56.7,56.7,0,0,0-56.7,56.32v90.85a14.51,14.51,0,0,1-29,0,9.23,9.23,0,1,0-18.46,0,33,33,0,1,0,65.93,0V228l76.49,0v55.14c0,.25,0,1.24,0,1.49a33,33,0,0,0,65.94,0c0-.06,0-.21,0-.22,0-.63,0-.38,0-.51V212.54h0v-.13a38.24,38.24,0,0,1,76.48.17v72.58c0,.31.06.6.09.91a32.91,32.91,0,0,0,61.22,15,51,51,0,0,0,80.44-7.66,56.59,56.59,0,0,0,93.63-1.91,56.6,56.6,0,0,0,47.48,25.77h0a56.69,56.69,0,0,0,56.67-56A9.23,9.23,0,0,0,627.47,251.88ZM173.08,123.27s0,0,0,0V123a14.5,14.5,0,1,1,14.68,14.51H173.08Zm-18.45,86.3c-12.5,0-40.29,0-60.49,0h-16V193.87A38.22,38.22,0,0,1,116.38,156h38.25Z" transform="translate(-12.21 -14.49)"/><path class="cls-1" d="M602.26,51.64a2.81,2.81,0,0,0-2.81,2.81v2a7.95,7.95,0,0,1-15.89-.07s0-1.83,0-1.92a2.81,2.81,0,1,0-5.61,0c0,.12,0,1.9,0,2a13.56,13.56,0,0,0,27.12.08c0-.17,0-2,0-2.07A2.81,2.81,0,0,0,602.26,51.64ZM640.1,41.29a3.48,3.48,0,0,0-2.73-2.14L621.5,36.89,615,36c-.6-1-1.22-1.95-1.84-2.88A38.08,38.08,0,0,0,546.68,35a61.8,61.8,0,0,0-10.17-.79,108.63,108.63,0,0,0-27.71,4l-1.05.31-.32,1.05a109.17,109.17,0,0,0-4,27.74c0,28.91,14.69,43.18,19.84,48.29a58.29,58.29,0,0,0,38,17.08v18.43a7.64,7.64,0,0,0-4.69,6.88c.17,1.34.9,1.4,1,1.51a10,10,0,0,0,2.89.32c1.26,0,2.85.07,4.43.07s3.4,0,4.69-.07c.65,0,1.19-.06,1.61-.1l.61-.09a1.46,1.46,0,0,0,.43-.14c.11-.1.83-.17,1-1.5a7.65,7.65,0,0,0-4.7-6.88V132.61c31.29-2.29,55.74-29.71,55.79-63,0-1.71-.07-3.39-.2-5l5.66-7.25,9.88-12.64A3.46,3.46,0,0,0,640.1,41.29Zm-75.8,84.55c-19,0-35.82-10.71-45.18-26.79a21.31,21.31,0,0,0,8,1.58h0a20,20,0,0,0,20.16-20.18,22.72,22.72,0,0,0-.14-2.47,20.51,20.51,0,0,0,2.48.15A20,20,0,0,0,569.84,58a21.76,21.76,0,0,0-6.44-15.37,22.14,22.14,0,0,0-7.66-5c-.69-.3-1.39-.58-2.1-.83a31.12,31.12,0,0,1,53.67,0c1,1.44,1.79,2.74,2.54,4.08l.09.13a71.83,71.83,0,0,1,6.3,17.8c.32,1.5.58,3,.8,4.58a2.78,2.78,0,0,0,0,.5c.19,1.91.3,3.83.3,5.76C617.33,100.82,593.44,125.78,564.3,125.84Z" transform="translate(-12.21 -14.49)"/></svg>